# xmcd
# 
# Track frame offsets:
#     150
#     19948
#     34165
#     52688
#     70718
#     92723
#     109821
#     124212
#     148346
#     164842
#     179654
#     194342
# 
# Disc length: 2758
# 
# Revision: 2
# Processed by: cddbd v1.5.2PL0 Copyright (c) Steve Scherf et al.
# Submitted via: fre:ac v1.0.31
# 
DISCID=b10ac40c
DTITLE=Elvin Bishop - The Blues Rolls On
DYEAR=2008
DGENRE=Blues
TTITLE0=The Blues Rolls On (featuring: Warren Haynes and Kim Wilson)
TTITLE1=Night Time Is The Right Time (featuring: John Németh and Angela Strehli)
TTITLE2=Yonder's Wall (featuring: Ronnie Baker Brooks and Tommy Castro)
TTITLE3=Struttin' My Stuff (featuring: Derek Trucks and Warren Haynes)
TTITLE4=Keep A Dollar In Your Pocket (featuring: B.B. King)
TTITLE5=Who's The Fool (featuring: John Németh and Kid Andersen)
TTITLE6=Black Gal (featuring: R.C. Carrier and Andre Thierry)
TTITLE7=Oklahoma
TTITLE8=Come On In This House (featuring: Homemade Jamz Band)
TTITLE9=I Found Out (featuring: John Németh, James Cotton and Angela Strehli)
TTITLE10=Send You Back To Georgia (featuring: George Thorogood)
TTITLE11=Honest I Do (featuring: John Németh)
EXTD=
EXTT0=
EXTT1=
EXTT2=
EXTT3=
EXTT4=
EXTT5=
EXTT6=
EXTT7=
EXTT8=
EXTT9=
EXTT10=
EXTT11=
PLAYORDER=
